<svg xmlns="http://www.w3.org/2000/svg" viewBox="0 0 270 35"><g fill="#fff"><path d="M269.1 34.5V17.2a17.3 17.3 0 10-7.7 14.4v2.9zm-17.3-7.7a9.6 9.6 0 119.6-9.6 9.6 9.6 0 01-9.5 9.6zM164.4 17.3a17.3 17.3 0 10-2 8l-6.5-3.5a9.9 9.9 0 01-8.8 5.3 10 10 0 01-9.6-8h26.8a17.4 17.4 0 00.1-1.9zm-26-4.4a9.7 9.7 0 0117.6-.1zM30.7 15.3a15.3 15.3 0 00-30.7 0v19.2h7.7V15.3a7.7 7.7 0 1115.3 0v19.2h7.7zM96.1 34.5h7.7V15.3c0-4.2 2.6-7.6 6.8-7.6s6.8 3.4 6.8 7.6v19.2h7.7V15.3c0-8.4-6-15.3-14.5-15.3-4.5 0-7.8 2-10.6 5.2C97.2 2 94 0 89.3 0 81 0 75 6.9 75 15.3v19.2h7.6V15.3c0-4.2 2.6-7.6 6.8-7.6s6.9 3.4 6.9 7.6zM192.3 34.5h7.6V15.3a15.3 15.3 0 00-30.7 0v19.2h7.7V15.3a7.7 7.7 0 0115.3 0zM52.8 0A17.3 17.3 0 1070 17.3 17.3 17.3 0 0052.7 0zm10.6 28H42.1V6.5h21.3z"/><path d="M59.5 10.5H46V24h13.5zM55.6 20H50v-5.7h5.7zM208.5 24a13.7 13.7 0 009 3.5c2.3 0 4.3-1 4.3-3 0-4.9-16-4.2-16-14.8 0-6 5.4-9.6 12.5-9.6 7.4 0 11 3.7 11 3.7l-3 6a12.5 12.5 0 00-8-2.8c-2.1 0-4.2.9-4.2 3 0 4.6 16 4 16 14.6 0 5.5-4.7 9.8-12.5 9.8a18.4 18.4 0 01-12.8-4.8z"/></g></svg>